<svg width="99" height="61" viewBox="0 0 99 61" fill="none" xmlns="http://www.w3.org/2000/svg">
<rect x="88" y="40.667" width="11" height="10.1667" fill="black"/>
<rect x="88" y="50.833" width="11" height="10.1667" fill="black"/>
<rect x="77" y="50.833" width="11" height="10.1667" fill="black"/>
<rect x="66" y="50.833" width="11" height="10.1667" fill="black"/>
<rect x="55" y="50.833" width="11" height="10.1667" fill="black"/>
<rect x="44" y="50.833" width="11" height="10.1667" fill="black"/>
<rect x="33" y="50.833" width="11" height="10.1667" fill="black"/>
<rect x="22" y="50.833" width="11" height="10.1667" fill="black"/>
<rect x="11" y="50.833" width="11" height="10.1667" fill="black"/>
<rect x="88" y="30.5" width="11" height="10.1667" fill="black"/>
<rect x="88" y="20.333" width="11" height="10.1667" fill="black"/>
<rect x="88" y="10.167" width="11" height="10.1667" fill="black"/>
<rect x="88" width="11" height="10.1667" fill="black"/>
<rect x="77" y="10.167" width="11" height="10.1667" fill="black"/>
<rect x="66" y="20.333" width="11" height="10.1667" fill="black"/>
<rect x="55" y="10.167" width="11" height="10.1667" fill="black"/>
<rect x="44" width="11" height="10.1667" fill="black"/>
<rect x="33" y="10.167" width="11" height="10.1667" fill="black"/>
<rect x="22" y="20.333" width="11" height="10.1667" fill="black"/>
<rect x="11" y="10.167" width="11" height="10.1667" fill="black"/>
<rect width="11" height="10.1667" fill="black"/>
<rect y="10.167" width="11" height="10.1667" fill="black"/>
<rect y="20.333" width="11" height="10.1667" fill="black"/>
<rect y="30.5" width="11" height="10.1667" fill="black"/>
<rect y="40.667" width="11" height="10.1667" fill="black"/>
<rect y="40.667" width="11" height="10.1667" fill="black"/>
<rect y="50.833" width="11" height="10.1667" fill="black"/>
<rect x="11" y="20.333" width="11" height="10.1667" fill="#5AA100"/>
<rect x="11" y="30.5" width="11" height="10.1667" fill="#5AA100"/>
<rect x="11" y="40.667" width="11" height="10.1667" fill="#5AA100"/>
<rect x="22" y="40.667" width="11" height="10.1667" fill="#5AA100"/>
<rect x="22" y="30.5" width="11" height="10.1667" fill="#5AA100"/>
<rect x="33" y="30.5" width="11" height="10.1667" fill="#5AA100"/>
<rect x="33" y="20.333" width="11" height="10.1667" fill="#5AA100"/>
<rect x="44" y="20.333" width="11" height="10.1667" fill="#5AA100"/>
<rect x="44" y="10.167" width="11" height="10.1667" fill="#5AA100"/>
<rect x="44" y="30.5" width="11" height="10.1667" fill="#5AA100"/>
<rect x="44" y="30.5" width="11" height="10.1667" fill="#5AA100"/>
<rect x="44" y="40.667" width="11" height="10.1667" fill="#5AA100"/>
<rect x="33" y="40.667" width="11" height="10.1667" fill="#5AA100"/>
<rect x="55" y="40.667" width="11" height="10.1667" fill="#5AA100"/>
<rect x="55" y="30.5" width="11" height="10.1667" fill="#5AA100"/>
<rect x="55" y="20.333" width="11" height="10.1667" fill="#E2FE92"/>
<rect x="44" y="10.167" width="11" height="10.1667" fill="#E2FE92"/>
<rect x="66" y="30.5" width="11" height="10.1667" fill="#5AA100"/>
<rect x="66" y="40.667" width="11" height="10.1667" fill="#5AA100"/>
<rect x="77" y="40.667" width="11" height="10.1667" fill="#5AA100"/>
<rect x="77" y="30.5" width="11" height="10.1667" fill="#5AA100"/>
<rect x="77" y="20.333" width="11" height="10.1667" fill="#E2FE92"/>
<rect x="11" y="40.667" width="11" height="10.1667" fill="#316F00"/>
<rect x="22" y="40.667" width="11" height="10.1667" fill="#316F00"/>
<rect x="11" y="30.5" width="11" height="10.1667" fill="#316F00"/>
</svg>
