<svg width="45" height="51" viewBox="0 0 45 51" fill="none" xmlns="http://www.w3.org/2000/svg">
<path d="M32.9765 51.215C29.8064 51.215 27.0907 50.0343 24.8293 47.6729C22.568 45.3115 21.4182 42.4557 21.3799 39.1054C21.3417 35.755 22.4263 32.8992 24.6337 30.5378C26.8411 28.1764 29.5299 26.9957 32.7 26.9957C35.8702 26.9957 38.5859 28.1764 40.8472 30.5378C43.1086 32.8992 44.2584 35.755 44.2966 39.1054C44.3349 42.4557 43.2503 45.3115 41.0429 47.6729C38.8355 50.0343 36.1467 51.215 32.9765 51.215ZM36.7425 44.8574L38.3273 43.1621L33.9786 38.621L33.9012 31.8396H31.6095L31.698 39.5897L36.7425 44.8574ZM5.44889 48.7931C4.18847 48.7931 3.10406 48.3188 2.19566 47.3702C1.28726 46.4216 0.825459 45.2813 0.81025 43.9492L0.423111 10.0422C0.407902 8.71015 0.843667 7.56982 1.73041 6.62123C2.61714 5.67264 3.69072 5.19835 4.95114 5.19835H14.5188C14.9229 3.78556 15.7308 2.62505 16.9426 1.71683C18.1545 0.808604 19.4861 0.354492 20.9375 0.354492C22.4653 0.354492 23.8359 0.808604 25.0494 1.71683C26.2629 2.62505 27.0878 3.78556 27.5241 5.19835H37.0345C38.2949 5.19835 39.3793 5.67264 40.2877 6.62123C41.1961 7.56982 41.6579 8.71015 41.6731 10.0422L41.8459 25.1793C41.1524 24.6545 40.4217 24.2105 39.6537 23.8472C38.8856 23.4839 38.0798 23.161 37.2363 22.8784L37.0898 10.0422H32.5064L32.5894 17.308H9.67274L9.58978 10.0422H5.00644L5.39358 43.9492H17.5394C17.8169 44.8373 18.1322 45.6849 18.4851 46.4922C18.8381 47.2995 19.267 48.0665 19.7718 48.7931H5.44889ZM21.0481 10.0422C21.6974 10.0422 22.239 9.81011 22.673 9.3459C23.1069 8.8817 23.32 8.30649 23.3121 7.62028C23.3043 6.93407 23.0781 6.35886 22.6336 5.89465C22.189 5.43045 21.6421 5.19835 20.9928 5.19835C20.3435 5.19835 19.8019 5.43045 19.3679 5.89465C18.934 6.35886 18.721 6.93407 18.7288 7.62028C18.7366 8.30649 18.9628 8.8817 19.4073 9.3459C19.8519 9.81011 20.3988 10.0422 21.0481 10.0422Z" fill="#0C7A08"/>
</svg>
