<svg width="50" height="49" viewBox="0 0 50 49" fill="none" xmlns="http://www.w3.org/2000/svg">
<path d="M13.2145 45.732H19.3256L18.984 6.98013H12.8729L13.2145 45.732ZM10.3298 65.108C7.78346 65.108 5.61081 64.1661 3.81179 62.2823C2.01278 60.3985 1.10141 58.1111 1.07769 55.42L0.679151 10.2095C0.655429 7.51835 1.52647 5.23092 3.29227 3.34714C5.05807 1.46337 7.21412 0.521484 9.76042 0.521484H43.3715L43.827 52.1907H10.2159C9.35015 52.1907 8.62718 52.5001 8.04699 53.1191C7.4668 53.7381 7.18074 54.505 7.1888 55.42C7.19687 56.335 7.49645 57.1019 8.08756 57.7209C8.67866 58.3398 9.40708 58.6493 10.2728 58.6493H49.995L49.5396 6.98013H55.6507L56.1631 65.108H10.3298Z" fill="#0C7A08"/>
</svg>
