<svg width="47" height="45" viewBox="0 0 47 45" fill="none" xmlns="http://www.w3.org/2000/svg">
<path d="M39.1789 15.3079C37.2692 15.3079 35.6379 14.6015 34.2849 13.1888C32.932 11.776 32.244 10.0604 32.221 8.04215C32.1979 6.02388 32.8467 4.30835 34.1674 2.89555C35.4881 1.48276 37.1033 0.776367 39.013 0.776367C40.9227 0.776367 42.5541 1.48276 43.907 2.89555C45.2599 4.30835 45.9479 6.02388 45.971 8.04215C45.994 10.0604 45.3452 11.776 44.0245 13.1888C42.7039 14.6015 41.0887 15.3079 39.1789 15.3079ZM5.13577 44.3711C3.87535 44.3711 2.79095 43.8968 1.88255 42.9482C0.974146 41.9996 0.512341 40.8593 0.497132 39.5272L0.165299 10.4641C0.15009 9.13202 0.585854 7.9917 1.47259 7.04311C2.35933 6.09452 3.43291 5.62022 4.69333 5.62022H27.8392C27.6956 6.42753 27.6284 7.23484 27.6376 8.04215C27.6469 8.84946 27.7325 9.65677 27.8945 10.4641C28.1766 11.7558 28.6295 12.9567 29.2533 14.0667C29.8771 15.1768 30.6331 16.1556 31.5212 17.0033L23.2202 22.5737L4.74863 10.4641L4.80394 15.3079L23.2755 27.4176L35.2728 19.4252C35.9249 19.6674 36.5763 19.8491 37.227 19.9702C37.8776 20.0912 38.5467 20.1518 39.2342 20.1518C40.4565 20.1518 41.6573 19.95 42.8367 19.5463C44.0161 19.1427 45.0977 18.5372 46.0816 17.7299L46.3305 39.5272C46.3457 40.8593 45.9099 41.9996 45.0232 42.9482C44.1364 43.8968 43.0628 44.3711 41.8024 44.3711H5.13577Z" fill="#0C7A08"/>
</svg>
