<svg width="30" height="22" viewBox="0 0 30 22" fill="none" xmlns="http://www.w3.org/2000/svg">
<path d="M29.8107 10.0648C28.6389 8.02631 27.2444 6.36383 25.6272 5.07733L23.9312 6.47778C25.3142 7.56912 26.5189 8.99682 27.5606 10.7749C24.7872 15.5146 20.8505 17.7661 15.4703 17.7661C13.8554 17.7661 12.3679 17.5608 11.0079 17.1501L9.17018 18.6675C11.0591 19.3878 13.1592 19.7479 15.4703 19.7479C21.8771 19.7479 26.6573 16.9927 29.8107 11.4823C29.9374 11.2607 30.0032 11.0186 30.0032 10.7735C30.0032 10.5284 29.9374 10.2864 29.8107 10.0648ZM27.6916 1.23932L26.2706 0.0645804C26.2458 0.0441074 26.2164 0.0278661 26.184 0.0167849C26.1517 0.00570371 26.117 0 26.0819 0C26.0469 0 26.0122 0.00570371 25.9798 0.0167849C25.9474 0.0278661 25.918 0.0441074 25.8932 0.0645804L22.2475 3.07355C20.2374 2.2258 17.9784 1.80192 15.4703 1.80192C9.06351 1.80192 4.2834 4.55712 1.12999 10.0675C1.00324 10.2891 0.9375 10.5312 0.9375 10.7763C0.9375 11.0214 1.00324 11.2634 1.12999 11.485C2.3898 13.676 3.9065 15.4321 5.6801 16.7535L2.15268 19.6653C2.10271 19.7066 2.07463 19.7626 2.07463 19.8209C2.07463 19.8793 2.10271 19.9353 2.15268 19.9766L3.57571 21.1516C3.62572 21.1929 3.69352 21.2161 3.76422 21.2161C3.83491 21.2161 3.90272 21.1929 3.95272 21.1516L27.6916 1.5509C27.7164 1.53045 27.7361 1.50617 27.7495 1.47943C27.7629 1.4527 27.7698 1.42405 27.7698 1.39511C27.7698 1.36618 27.7629 1.33752 27.7495 1.31079C27.7361 1.28406 27.7164 1.25977 27.6916 1.23932ZM3.38004 10.7749C6.15677 6.03519 10.0935 3.78369 15.4703 3.78369C17.2884 3.78369 18.9414 4.04131 20.4411 4.5651L18.0977 6.50007C16.9879 6.01114 15.7172 5.82968 14.473 5.98247C13.2288 6.13525 12.077 6.61419 11.1875 7.34863C10.2981 8.08307 9.71804 9.03412 9.53301 10.0615C9.34797 11.0888 9.56773 12.1381 10.1599 13.0545L7.37914 15.3506C5.8401 14.2289 4.5134 12.7093 3.38004 10.7749ZM11.6036 10.7749C11.6042 10.2895 11.7434 9.81115 12.0099 9.37857C12.2765 8.946 12.6629 8.57144 13.1377 8.28534C13.6125 7.99923 14.1624 7.80964 14.7426 7.73197C15.3228 7.65429 15.9171 7.69073 16.477 7.83831L11.7806 11.7162C11.6629 11.4119 11.6031 11.0944 11.6036 10.7749Z" fill="black"/>
</svg>
