<svg width="30" height="22" viewBox="0 0 30 22" fill="none" xmlns="http://www.w3.org/2000/svg">
<path d="M28.8732 10.0648C27.7014 8.02631 26.3069 6.36383 24.6897 5.07733L22.9937 6.47778C24.3767 7.56912 25.5814 8.99682 26.6231 10.7749C23.8497 15.5146 19.913 17.7661 14.5328 17.7661C12.9179 17.7661 11.4304 17.5608 10.0704 17.1501L8.23268 18.6675C10.1216 19.3878 12.2217 19.7479 14.5328 19.7479C20.9396 19.7479 25.7198 16.9927 28.8732 11.4823C28.9999 11.2607 29.0657 11.0186 29.0657 10.7735C29.0657 10.5284 28.9999 10.2864 28.8732 10.0648ZM26.7541 1.23932L25.3331 0.0645804C25.3083 0.0441074 25.2789 0.0278661 25.2465 0.0167849C25.2142 0.00570371 25.1795 0 25.1444 0C25.1094 0 25.0747 0.00570371 25.0423 0.0167849C25.0099 0.0278661 24.9805 0.0441074 24.9557 0.0645804L21.31 3.07355C19.2999 2.2258 17.0409 1.80192 14.5328 1.80192C8.12601 1.80192 3.3459 4.55712 0.192489 10.0675C0.0657371 10.2891 0 10.5312 0 10.7763C0 11.0214 0.0657371 11.2634 0.192489 11.485C1.4523 13.676 2.969 15.4321 4.7426 16.7535L1.21518 19.6653C1.16521 19.7066 1.13713 19.7626 1.13713 19.8209C1.13713 19.8793 1.16521 19.9353 1.21518 19.9766L2.63821 21.1516C2.68822 21.1929 2.75602 21.2161 2.82672 21.2161C2.89741 21.2161 2.96522 21.1929 3.01522 21.1516L26.7541 1.5509C26.7789 1.53045 26.7986 1.50617 26.812 1.47943C26.8254 1.4527 26.8323 1.42405 26.8323 1.39511C26.8323 1.36618 26.8254 1.33752 26.812 1.31079C26.7986 1.28406 26.7789 1.25977 26.7541 1.23932ZM2.44254 10.7749C5.21927 6.03519 9.15603 3.78369 14.5328 3.78369C16.3509 3.78369 18.0039 4.04131 19.5036 4.5651L17.1602 6.50007C16.0504 6.01114 14.7797 5.82968 13.5355 5.98247C12.2913 6.13525 11.1395 6.61419 10.25 7.34863C9.36057 8.08307 8.78054 9.03412 8.59551 10.0615C8.41047 11.0888 8.63023 12.1381 9.22237 13.0545L6.44164 15.3506C4.9026 14.2289 3.5759 12.7093 2.44254 10.7749ZM10.6661 10.7749C10.6667 10.2895 10.8059 9.81115 11.0724 9.37857C11.339 8.946 11.7254 8.57144 12.2002 8.28534C12.675 7.99923 13.2249 7.80964 13.8051 7.73197C14.3853 7.65429 14.9796 7.69073 15.5395 7.83831L10.8431 11.7162C10.7254 11.4119 10.6656 11.0944 10.6661 10.7749Z" fill="black"/>
<path d="M14.3993 13.8578C14.2839 13.8578 14.1703 13.8534 14.0576 13.8448L12.2969 15.2987C13.3559 15.6336 14.5097 15.708 15.6188 15.5129C16.7279 15.3179 17.7449 14.8618 18.5467 14.1997C19.3486 13.5375 19.901 12.6978 20.1372 11.782C20.3734 10.8662 20.2833 9.91349 19.8777 9.03906L18.117 10.4929C18.1273 10.5859 18.1327 10.6798 18.1327 10.775C18.1329 11.1799 18.0366 11.5809 17.849 11.955C17.6615 12.3291 17.3865 12.669 17.0398 12.9553C16.693 13.2416 16.2814 13.4687 15.8283 13.6236C15.3752 13.7784 14.8896 13.858 14.3993 13.8578Z" fill="black"/>
</svg>
