<svg width="35" height="31" viewBox="0 0 35 31" fill="none" xmlns="http://www.w3.org/2000/svg">
<g id="homenzinho">
<path id="icon/social/person_24px" fill-rule="evenodd" clip-rule="evenodd" d="M17.5638 5.36621C14.352 5.36621 11.7506 7.58828 11.7506 10.3317C11.7506 13.0752 14.352 15.2972 17.5638 15.2972C20.7755 15.2972 23.3769 13.0752 23.3769 10.3317C23.3769 7.58828 20.7755 5.36621 17.5638 5.36621ZM20.4703 10.3317C20.4703 8.9662 19.1624 7.84896 17.5638 7.84896C15.9652 7.84896 14.6572 8.9662 14.6572 10.3317C14.6572 11.6972 15.9652 12.8145 17.5638 12.8145C19.1624 12.8145 20.4703 11.6972 20.4703 10.3317ZM26.2835 22.7455C25.9928 21.8641 21.4876 20.2627 17.5638 20.2627C13.6544 20.2627 9.17832 21.8517 8.84407 22.7455H26.2835ZM5.9375 22.7455C5.9375 19.4434 13.6835 17.78 17.5638 17.78C21.444 17.78 29.1901 19.4434 29.1901 22.7455V25.2282H5.9375V22.7455Z" fill="black"/>
</g>
</svg>
